<?xml version="1.0" encoding="UTF-8" standalone="no"?>
<!DOCTYPE svg PUBLIC "-//W3C//DTD SVG 1.1//EN"
 "http://www.w3.org/Graphics/SVG/1.1/DTD/svg11.dtd">
<!-- Generated by graphviz version 13.1.2 (20250808.2320)
 -->
<!-- Title: G Pages: 1 -->
<svg width="244pt" height="448pt"
 viewBox="0.00 0.00 244.00 448.00" xmlns="http://www.w3.org/2000/svg" xmlns:xlink="http://www.w3.org/1999/xlink">
<g id="graph0" class="graph" transform="scale(1 1) rotate(0) translate(4 444.13)">
<title>G</title><style>.edge>path:hover{stroke-width:8}</style>
<polygon fill="white" stroke="none" points="-4,4 -4,-444.13 239.91,-444.13 239.91,4 -4,4"/>
<!-- django -->
<g id="node1" class="node">
<title>django</title><style>.edge>path:hover{stroke-width:8}</style>
<polygon fill="#e90c0c" stroke="black" points="193,-440.13 190,-444.13 169,-444.13 166,-440.13 139,-440.13 139,-404.13 193,-404.13 193,-440.13"/>
<text xml:space="preserve" text-anchor="middle" x="166" y="-418.26" font-family="Helvetica,sans-Serif" font-size="10.00" fill="#ffffff">django</text>
</g>
<!-- executors -->
<g id="node2" class="node">
<title>executors</title><style>.edge>path:hover{stroke-width:8}</style>
<polygon fill="#a9c247" stroke="black" points="112.38,-217 109.38,-221 88.38,-221 85.38,-217 53.62,-217 53.62,-181 112.38,-181 112.38,-217"/>
<text xml:space="preserve" text-anchor="middle" x="83" y="-195.12" font-family="Helvetica,sans-Serif" font-size="10.00" fill="#000000">executors</text>
</g>
<!-- django&#45;&gt;executors -->
<g id="edge1" class="edge">
<title>django&#45;&gt;executors</title><style>.edge>path:hover{stroke-width:8}</style>
<path fill="none" stroke="black" d="M82,-345.57C58.56,-310.83 65.9,-260.02 73.99,-228.53"/>
<polygon fill="#e90c0c" stroke="black" points="77.35,-229.52 76.65,-218.94 70.6,-227.64 77.35,-229.52"/>
</g>
<!-- profiles -->
<g id="node3" class="node">
<title>profiles</title><style>.edge>path:hover{stroke-width:8}</style>
<polygon fill="#47c278" stroke="black" points="54,-289 51,-293 30,-293 27,-289 0,-289 0,-253 54,-253 54,-289"/>
<text xml:space="preserve" text-anchor="middle" x="27" y="-267.12" font-family="Helvetica,sans-Serif" font-size="10.00" fill="#000000">profiles</text>
</g>
<!-- django&#45;&gt;profiles -->
<g id="edge2" class="edge">
<title>django&#45;&gt;profiles</title><style>.edge>path:hover{stroke-width:8}</style>
<path fill="none" stroke="black" d="M82,-345.57C71.2,-329.56 58.32,-312.24 47.73,-298.43"/>
<polygon fill="#e90c0c" stroke="black" points="50.63,-296.46 41.75,-290.69 45.09,-300.74 50.63,-296.46"/>
<path fill="none" stroke="black" d="M139.63,-403.65C121.22,-390.24 97.29,-370.22 82,-347.57"/>
</g>
<!-- task_manager_urls -->
<g id="node5" class="node">
<title>task_manager_urls</title><style>.edge>path:hover{stroke-width:8}</style>
<ellipse fill="#43679d" stroke="black" cx="166" cy="-346.57" rx="56.39" ry="21.57"/>
<text xml:space="preserve" text-anchor="middle" x="166" y="-348.32" font-family="Helvetica,sans-Serif" font-size="10.00" fill="#ffffff">task_manager.</text>
<text xml:space="preserve" text-anchor="middle" x="166" y="-337.07" font-family="Helvetica,sans-Serif" font-size="10.00" fill="#ffffff">urls</text>
</g>
<!-- django&#45;&gt;task_manager_urls -->
<g id="edge3" class="edge">
<title>django&#45;&gt;task_manager_urls</title><style>.edge>path:hover{stroke-width:8}</style>
<path fill="none" stroke="black" d="M166,-403.7C166,-396.54 166,-388.01 166,-379.79"/>
<polygon fill="#e90c0c" stroke="black" points="169.5,-380.06 166,-370.06 162.5,-380.06 169.5,-380.06"/>
</g>
<!-- tasks -->
<g id="node6" class="node">
<title>tasks</title><style>.edge>path:hover{stroke-width:8}</style>
<polygon fill="#a253b6" stroke="black" points="165,-145 162,-149 141,-149 138,-145 111,-145 111,-109 165,-109 165,-145"/>
<text xml:space="preserve" text-anchor="middle" x="138" y="-123.12" font-family="Helvetica,sans-Serif" font-size="10.00" fill="#ffffff">tasks</text>
</g>
<!-- django&#45;&gt;tasks -->
<g id="edge4" class="edge">
<title>django&#45;&gt;tasks</title><style>.edge>path:hover{stroke-width:8}</style>
<path fill="none" stroke="black" d="M193.17,-406.83C207.26,-397.8 223.13,-384.71 231,-368.13 239.22,-350.82 235.19,-343.71 231,-325 216.48,-260.23 178.16,-191.68 155.5,-154.97"/>
<polygon fill="#e90c0c" stroke="black" points="158.63,-153.39 150.36,-146.78 152.7,-157.11 158.63,-153.39"/>
</g>
<!-- task_manager -->
<g id="node4" class="node">
<title>task_manager</title><style>.edge>path:hover{stroke-width:8}</style>
<ellipse fill="#3d5e8f" stroke="black" cx="83" cy="-18" rx="45.86" ry="18"/>
<text xml:space="preserve" text-anchor="middle" x="83" y="-14.12" font-family="Helvetica,sans-Serif" font-size="10.00" fill="#ffffff">task_manager</text>
</g>
<!-- executors&#45;&gt;task_manager -->
<g id="edge5" class="edge">
<title>executors&#45;&gt;task_manager</title><style>.edge>path:hover{stroke-width:8}</style>
<path fill="none" stroke="black" d="M81.2,-180.57C80.16,-166.3 79.63,-145.67 83,-128"/>
</g>
<!-- executors&#45;&gt;tasks -->
<g id="edge6" class="edge">
<title>executors&#45;&gt;tasks</title><style>.edge>path:hover{stroke-width:8}</style>
<path fill="none" stroke="black" d="M96.6,-180.7C102.92,-172.64 110.58,-162.89 117.59,-153.98"/>
<polygon fill="#a9c247" stroke="black" points="120.2,-156.32 123.63,-146.29 114.7,-152 120.2,-156.32"/>
</g>
<!-- profiles&#45;&gt;executors -->
<g id="edge7" class="edge">
<title>profiles&#45;&gt;executors</title><style>.edge>path:hover{stroke-width:8}</style>
<path fill="none" stroke="black" d="M40.84,-252.7C47.29,-244.64 55.08,-234.89 62.21,-225.98"/>
<polygon fill="#47c278" stroke="black" points="64.86,-228.28 68.37,-218.29 59.39,-223.91 64.86,-228.28"/>
</g>
<!-- profiles&#45;&gt;task_manager -->
<g id="edge8" class="edge">
<title>profiles&#45;&gt;task_manager</title><style>.edge>path:hover{stroke-width:8}</style>
<path fill="none" stroke="black" d="M83,-72C81.16,-64.27 80.56,-55.73 80.58,-47.8"/>
<polygon fill="#47c278" stroke="black" points="84.07,-48.05 80.93,-37.93 77.07,-47.8 84.07,-48.05"/>
<path fill="none" stroke="black" d="M28.34,-252.62C30.25,-234.2 34.74,-204.56 45,-181 56.57,-154.43 77.57,-156.47 83,-128"/>
<path fill="none" stroke="black" d="M83,-126C86.44,-102.7 88.45,-95.92 83,-73"/>
</g>
<!-- tasks&#45;&gt;task_manager -->
<g id="edge9" class="edge">
<title>tasks&#45;&gt;task_manager</title><style>.edge>path:hover{stroke-width:8}</style>
<path fill="none" stroke="black" d="M110.74,-109.9C98.79,-100.88 86.65,-88.35 83,-73"/>
</g>
</g>
</svg>
