<?xml version="1.0" encoding="UTF-8" standalone="no"?>
<!DOCTYPE svg PUBLIC "-//W3C//DTD SVG 1.1//EN"
 "http://www.w3.org/Graphics/SVG/1.1/DTD/svg11.dtd">
<!-- Generated by graphviz version 13.1.2 (20250808.2320)
 -->
<!-- Title: G Pages: 1 -->
<svg width="256pt" height="369pt"
 viewBox="0.00 0.00 256.00 369.00" xmlns="http://www.w3.org/2000/svg" xmlns:xlink="http://www.w3.org/1999/xlink">
<g id="graph0" class="graph" transform="scale(1 1) rotate(0) translate(4 365)">
<title>G</title><style>.edge>path:hover{stroke-width:8}</style>
<polygon fill="white" stroke="none" points="-4,4 -4,-365 251.51,-365 251.51,4 -4,4"/>
<!-- django -->
<g id="node1" class="node">
<title>django</title><style>.edge>path:hover{stroke-width:8}</style>
<polygon fill="#e50505" stroke="black" points="137.97,-361 134.97,-365 113.97,-365 110.97,-361 83.97,-361 83.97,-325 137.97,-325 137.97,-361"/>
<text xml:space="preserve" text-anchor="middle" x="110.97" y="-339.12" font-family="Helvetica,sans-Serif" font-size="10.00" fill="#ffffff">django</text>
</g>
<!-- tasks_admin -->
<g id="node2" class="node">
<title>tasks_admin</title><style>.edge>path:hover{stroke-width:8}</style>
<ellipse fill="#46a4a4" stroke="black" cx="40.97" cy="-162" rx="40.97" ry="18"/>
<text xml:space="preserve" text-anchor="middle" x="40.97" y="-158.12" font-family="Helvetica,sans-Serif" font-size="10.00" fill="#000000">tasks.admin</text>
</g>
<!-- django&#45;&gt;tasks_admin -->
<g id="edge1" class="edge">
<title>django&#45;&gt;tasks_admin</title><style>.edge>path:hover{stroke-width:8}</style>
<path fill="none" stroke="black" d="M91.22,-324.73C81.52,-315.16 70.54,-302.49 63.97,-289 48.85,-257.93 43.61,-218.16 41.83,-191.69"/>
<polygon fill="#e50505" stroke="black" points="45.33,-191.52 41.3,-181.72 38.34,-191.89 45.33,-191.52"/>
</g>
<!-- tasks_apps -->
<g id="node3" class="node">
<title>tasks_apps</title><style>.edge>path:hover{stroke-width:8}</style>
<ellipse fill="#49acac" stroke="black" cx="110.97" cy="-271" rx="37.87" ry="18"/>
<text xml:space="preserve" text-anchor="middle" x="110.97" y="-267.12" font-family="Helvetica,sans-Serif" font-size="10.00" fill="#000000">tasks.apps</text>
</g>
<!-- django&#45;&gt;tasks_apps -->
<g id="edge2" class="edge">
<title>django&#45;&gt;tasks_apps</title><style>.edge>path:hover{stroke-width:8}</style>
<path fill="none" stroke="black" d="M110.97,-324.7C110.97,-317.41 110.97,-308.73 110.97,-300.54"/>
<polygon fill="#e50505" stroke="black" points="114.48,-300.62 110.97,-290.62 107.48,-300.62 114.48,-300.62"/>
</g>
<!-- tasks_models -->
<g id="node4" class="node">
<title>tasks_models</title><style>.edge>path:hover{stroke-width:8}</style>
<ellipse fill="#2fbcbc" stroke="black" cx="181.97" cy="-162" rx="44.08" ry="18"/>
<text xml:space="preserve" text-anchor="middle" x="181.97" y="-158.12" font-family="Helvetica,sans-Serif" font-size="10.00" fill="#000000">tasks.models</text>
</g>
<!-- django&#45;&gt;tasks_models -->
<g id="edge3" class="edge">
<title>django&#45;&gt;tasks_models</title><style>.edge>path:hover{stroke-width:8}</style>
<path fill="none" stroke="black" d="M181.97,-216C181.97,-208.06 181.97,-199.44 181.97,-191.52"/>
<polygon fill="#e50505" stroke="black" points="185.48,-191.7 181.97,-181.7 178.48,-191.7 185.48,-191.7"/>
</g>
<!-- tasks_tests -->
<g id="node5" class="node">
<title>tasks_tests</title><style>.edge>path:hover{stroke-width:8}</style>
<ellipse fill="#3d8f8f" stroke="black" cx="109.97" cy="-90" rx="38.31" ry="18"/>
<text xml:space="preserve" text-anchor="middle" x="109.97" y="-86.12" font-family="Helvetica,sans-Serif" font-size="10.00" fill="#ffffff">tasks.tests</text>
</g>
<!-- django&#45;&gt;tasks_tests -->
<g id="edge4" class="edge">
<title>django&#45;&gt;tasks_tests</title><style>.edge>path:hover{stroke-width:8}</style>
<path fill="none" stroke="black" d="M109.97,-161C100.76,-149.52 100.27,-133.24 102.3,-119.27"/>
<polygon fill="#e50505" stroke="black" points="105.68,-120.2 104.18,-109.72 98.82,-118.85 105.68,-120.2"/>
</g>
<!-- tasks_urls -->
<g id="node6" class="node">
<title>tasks_urls</title><style>.edge>path:hover{stroke-width:8}</style>
<ellipse fill="#439d9d" stroke="black" cx="124.97" cy="-18" rx="34.76" ry="18"/>
<text xml:space="preserve" text-anchor="middle" x="124.97" y="-14.12" font-family="Helvetica,sans-Serif" font-size="10.00" fill="#000000">tasks.urls</text>
</g>
<!-- django&#45;&gt;tasks_urls -->
<g id="edge5" class="edge">
<title>django&#45;&gt;tasks_urls</title><style>.edge>path:hover{stroke-width:8}</style>
<path fill="none" stroke="black" d="M109.97,-161C81.98,-126.11 44.26,-112.63 62.97,-72 69.29,-58.3 81.08,-46.82 92.7,-38.09"/>
<polygon fill="#e50505" stroke="black" points="94.44,-41.15 100.64,-32.56 90.43,-35.41 94.44,-41.15"/>
<path fill="none" stroke="black" d="M181.97,-216C180.53,-187.56 151.41,-197.53 128.97,-180 120.05,-173.02 116.62,-172.18 109.97,-163"/>
<path fill="none" stroke="black" d="M129.22,-324.7C150.97,-302.05 184.17,-260.12 181.97,-217"/>
</g>
<!-- tasks_views -->
<g id="node7" class="node">
<title>tasks_views</title><style>.edge>path:hover{stroke-width:8}</style>
<ellipse fill="#38a8a8" stroke="black" cx="206.97" cy="-90" rx="40.53" ry="18"/>
<text xml:space="preserve" text-anchor="middle" x="206.97" y="-86.12" font-family="Helvetica,sans-Serif" font-size="10.00" fill="#000000">tasks.views</text>
</g>
<!-- django&#45;&gt;tasks_views -->
<g id="edge6" class="edge">
<title>django&#45;&gt;tasks_views</title><style>.edge>path:hover{stroke-width:8}</style>
<path fill="none" stroke="black" d="M181.97,-216C181.97,-187.52 221.65,-205.16 234.97,-180 245.54,-160.04 236.3,-135.43 225.68,-117.15"/>
<polygon fill="#e50505" stroke="black" points="228.68,-115.34 220.4,-108.74 222.76,-119.07 228.68,-115.34"/>
</g>
<!-- tasks_models&#45;&gt;tasks_tests -->
<g id="edge7" class="edge">
<title>tasks_models&#45;&gt;tasks_tests</title><style>.edge>path:hover{stroke-width:8}</style>
<path fill="none" stroke="black" d="M165.64,-145.12C156.21,-135.95 144.18,-124.26 133.73,-114.09"/>
<polygon fill="#2fbcbc" stroke="black" points="136.45,-111.86 126.84,-107.4 131.57,-116.88 136.45,-111.86"/>
</g>
<!-- tasks_models&#45;&gt;tasks_views -->
<g id="edge8" class="edge">
<title>tasks_models&#45;&gt;tasks_views</title><style>.edge>path:hover{stroke-width:8}</style>
<path fill="none" stroke="black" d="M188.15,-143.7C190.85,-136.15 194.08,-127.12 197.09,-118.68"/>
<polygon fill="#2fbcbc" stroke="black" points="200.29,-120.12 200.36,-109.53 193.7,-117.77 200.29,-120.12"/>
</g>
<!-- tasks_views&#45;&gt;tasks_urls -->
<g id="edge9" class="edge">
<title>tasks_views&#45;&gt;tasks_urls</title><style>.edge>path:hover{stroke-width:8}</style>
<path fill="none" stroke="black" d="M188.78,-73.46C177.69,-64 163.34,-51.75 151.06,-41.27"/>
<polygon fill="#38a8a8" stroke="black" points="153.59,-38.82 143.71,-34.99 149.04,-44.15 153.59,-38.82"/>
</g>
</g>
</svg>
